<?xml version="1.0" encoding="utf-8"?>
<!-- Generator: Adobe Illustrator 28.2.0, SVG Export Plug-In . SVG Version: 6.00 Build 0)  -->
<svg version="1.1" id="Layer_1" xmlns="http://www.w3.org/2000/svg" xmlns:xlink="http://www.w3.org/1999/xlink" x="0px" y="0px"
	 viewBox="0 0 1920 1080" style="enable-background:new 0 0 1920 1080;" xml:space="preserve">
<style type="text/css">
	.st0{fill:#A6A6A6;}
	.st1{fill:#29993C;}
	.st2{fill:none;stroke:#000000;stroke-width:10;stroke-miterlimit:10;}
</style>
<g>
	<g>
		<g>
			<path class="st0" d="M1178.7,899c16.2-91.5,30.4-183.2,41.3-274.9c5.4-45.8,9.9-91.7,13.1-137.4c3.2-45.7,5-91.4,4.7-136.6
				c-0.2-22.6-0.9-45.1-2.5-67.4c-1.5-22.2-3.9-44.3-7.4-65.7c-3.5-21.4-8.3-42.3-15-61.6c-3.3-9.6-7.1-18.8-11.5-27.1
				c-4.3-8.3-9.2-15.8-14.4-21.9c-2.6-3.1-5.3-5.7-7.9-8c-2.7-2.3-5.4-4.3-8.1-5.8c-5.5-3.2-11.2-5-18.4-5.8
				c-7.1-0.8-15.5-0.3-24.7,1.5c-9.2,1.8-19,4.9-28.9,8.9c-9.9,4-19.9,8.8-29.9,14.2c-9.9,5.4-19.8,11.4-29.6,17.8
				c-19.5,12.8-38.5,27.1-57,42.1c-37,30.2-72.1,63.4-106,97.8c-33.9,34.4-66.5,70.2-98.3,106.6c-63.6,72.9-123.9,148.7-182.4,225.6
				c-58.5,77-115,155.3-170.2,234.3c-55.2,79.1-109.1,159-162,239.5c47.5-83.2,96.1-165.9,146.1-248
				c50.1-82.1,101.5-163.5,155.1-243.9c53.7-80.4,109.3-159.8,169-237.3c29.9-38.7,60.7-76.9,93.3-114.3
				c32.6-37.3,66.8-73.8,104.4-108.5c18.9-17.3,38.6-34.1,60.1-50c10.7-7.9,21.8-15.6,33.6-22.9c11.8-7.3,24.2-14.2,37.5-20.5
				c13.4-6.2,27.7-11.8,43.6-16c15.8-4.1,33.4-6.7,52.1-5.9c9.4,0.4,18.9,1.7,28.4,3.9c4.7,1.1,9.4,2.5,13.9,4.1
				c2.3,0.8,4.5,1.6,6.7,2.6l3.3,1.4l3.2,1.5c8.6,4,16.6,8.8,23.8,14.1c7.2,5.2,13.7,10.9,19.5,16.7c11.6,11.7,20.7,24.1,28.4,36.5
				c7.6,12.4,13.8,24.9,19.2,37.3c10.6,24.9,18.1,49.6,24,74.1c5.9,24.6,10.3,49,13.8,73.3c3.5,24.3,6.1,48.5,8,72.7
				c3.9,48.3,5.4,96.3,5.7,144.1c0.2,47.8-1,95.4-3,142.9c-4.2,95-11.8,189.5-21.5,283.7L1178.7,899z"/>
		</g>
		<g>
			<g>
				<polygon class="st0" points="1581,644.4 1261.9,863.6 1019.6,574.9 987,790.5 1229.3,1079 1548.3,860 				"/>
			</g>
		</g>
	</g>
	<g>
		<path class="st1" d="M1311.3,589.4c-29.3-39.5-114.2-135.2-269.7-170.6C887,383.6,761,430.6,713.9,452.4l-25.1-44.2
			c52.5-24.4,193.4-76.9,366.2-37.6c173.9,39.6,269.1,146.8,301.9,191.1L1311.3,589.4z"/>
	</g>
	<g>
		<path class="st2" d="M1678.4,755"/>
	</g>
</g>
</svg>
